<svg xmlns="http://www.w3.org/2000/svg" xmlns:xlink="http://www.w3.org/1999/xlink" width="90" zoomAndPan="magnify" viewBox="0 0 67.5 30.000001" height="40" preserveAspectRatio="xMidYMid meet" version="1.0"><defs><g/></defs><g fill="#000000" fill-opacity="1"><g transform="translate(3.092237, 20.685486)"><g><path d="M 15.65625 -17.03125 C 15.6875 -16.863281 15.660156 -16.703125 15.578125 -16.546875 C 15.492188 -16.390625 15.375 -16.257812 15.21875 -16.15625 C 15.007812 -16.007812 14.796875 -15.882812 14.578125 -15.78125 C 14.359375 -15.6875 14.132812 -15.609375 13.90625 -15.546875 C 13.519531 -15.484375 13.125 -15.410156 12.71875 -15.328125 C 12.320312 -15.253906 11.90625 -15.175781 11.46875 -15.09375 C 11.425781 -14.988281 11.378906 -14.859375 11.328125 -14.703125 C 11.285156 -14.554688 11.234375 -14.40625 11.171875 -14.25 C 11.066406 -13.851562 10.929688 -13.335938 10.765625 -12.703125 C 10.597656 -12.066406 10.421875 -11.375 10.234375 -10.625 C 10.054688 -9.882812 9.875 -9.140625 9.6875 -8.390625 C 9.507812 -7.648438 9.34375 -6.957031 9.1875 -6.3125 C 9.039062 -5.675781 8.925781 -5.160156 8.84375 -4.765625 C 8.75 -4.378906 8.644531 -3.929688 8.53125 -3.421875 C 8.425781 -2.910156 8.285156 -2.40625 8.109375 -1.90625 C 7.941406 -1.414062 7.703125 -0.992188 7.390625 -0.640625 C 7.085938 -0.285156 6.679688 -0.0546875 6.171875 0.046875 C 6.046875 0.0546875 5.921875 0.0625 5.796875 0.0625 C 5.679688 0.0703125 5.5625 0.078125 5.4375 0.078125 C 5.34375 0.078125 5.242188 0.078125 5.140625 0.078125 C 5.035156 0.078125 4.9375 0.0703125 4.84375 0.0625 C 4.582031 0.03125 4.375 -0.0625 4.21875 -0.21875 C 4.070312 -0.382812 4.109375 -0.539062 4.328125 -0.6875 C 4.378906 -0.664062 4.457031 -0.65625 4.5625 -0.65625 C 4.914062 -0.65625 5.222656 -0.789062 5.484375 -1.0625 C 5.742188 -1.34375 5.96875 -1.675781 6.15625 -2.0625 C 6.34375 -2.457031 6.488281 -2.84375 6.59375 -3.21875 C 6.707031 -3.59375 6.789062 -3.878906 6.84375 -4.078125 C 7.164062 -5.554688 7.507812 -7.023438 7.875 -8.484375 C 8.238281 -9.953125 8.625 -11.414062 9.03125 -12.875 C 9.125 -13.257812 9.222656 -13.640625 9.328125 -14.015625 C 9.429688 -14.390625 9.53125 -14.78125 9.625 -15.1875 C 9.445312 -15.195312 9.273438 -15.203125 9.109375 -15.203125 C 8.953125 -15.210938 8.789062 -15.21875 8.625 -15.21875 C 8.488281 -15.207031 8.207031 -15.179688 7.78125 -15.140625 C 7.363281 -15.097656 6.878906 -15.046875 6.328125 -14.984375 C 5.773438 -14.921875 5.222656 -14.851562 4.671875 -14.78125 C 4.117188 -14.71875 3.628906 -14.660156 3.203125 -14.609375 C 2.785156 -14.566406 2.515625 -14.53125 2.390625 -14.5 C 2.085938 -14.457031 1.726562 -14.367188 1.3125 -14.234375 C 0.90625 -14.097656 0.601562 -13.898438 0.40625 -13.640625 C 0.382812 -13.578125 0.351562 -13.523438 0.3125 -13.484375 C 0.28125 -13.441406 0.234375 -13.421875 0.171875 -13.421875 C 0.148438 -13.421875 0.0976562 -13.4375 0.015625 -13.46875 C 0.078125 -13.738281 0.222656 -13.96875 0.453125 -14.15625 C 0.679688 -14.351562 0.945312 -14.507812 1.25 -14.625 C 1.5625 -14.75 1.832031 -14.816406 2.0625 -14.828125 C 2.269531 -14.859375 2.632812 -14.898438 3.15625 -14.953125 C 3.675781 -15.003906 4.269531 -15.0625 4.9375 -15.125 C 5.613281 -15.195312 6.289062 -15.269531 6.96875 -15.34375 C 7.65625 -15.425781 8.257812 -15.492188 8.78125 -15.546875 C 9.300781 -15.609375 9.675781 -15.644531 9.90625 -15.65625 C 10.164062 -16.101562 10.429688 -16.5 10.703125 -16.84375 C 10.972656 -17.1875 11.304688 -17.453125 11.703125 -17.640625 C 12.097656 -17.835938 12.582031 -17.9375 13.15625 -17.9375 C 13.394531 -17.9375 13.695312 -17.910156 14.0625 -17.859375 C 14.4375 -17.816406 14.785156 -17.726562 15.109375 -17.59375 C 15.429688 -17.46875 15.613281 -17.28125 15.65625 -17.03125 Z M 14.765625 -16.640625 C 14.960938 -17.003906 14.867188 -17.222656 14.484375 -17.296875 C 14.265625 -17.328125 14.078125 -17.347656 13.921875 -17.359375 C 13.765625 -17.378906 13.585938 -17.390625 13.390625 -17.390625 C 13.265625 -17.367188 13.128906 -17.332031 12.984375 -17.28125 C 12.847656 -17.226562 12.734375 -17.15625 12.640625 -17.0625 C 12.429688 -16.875 12.265625 -16.644531 12.140625 -16.375 C 12.023438 -16.113281 11.882812 -15.847656 11.71875 -15.578125 C 12.070312 -15.640625 12.410156 -15.695312 12.734375 -15.75 C 13.054688 -15.8125 13.367188 -15.875 13.671875 -15.9375 C 13.828125 -15.976562 14.035156 -16.066406 14.296875 -16.203125 C 14.554688 -16.347656 14.710938 -16.492188 14.765625 -16.640625 Z M 14.765625 -16.640625 "/></g></g></g><g fill="#000000" fill-opacity="1"><g transform="translate(14.040057, 20.685486)"><g><path d="M 5.625 -6.578125 C 5.695312 -6.484375 5.71875 -6.382812 5.6875 -6.28125 C 5.664062 -6.175781 5.632812 -6.082031 5.59375 -6 C 5.507812 -5.851562 5.414062 -5.695312 5.3125 -5.53125 C 5.21875 -5.375 5.117188 -5.222656 5.015625 -5.078125 C 4.753906 -4.734375 4.492188 -4.382812 4.234375 -4.03125 C 3.972656 -3.675781 3.703125 -3.320312 3.421875 -2.96875 C 3.160156 -2.625 2.867188 -2.289062 2.546875 -1.96875 C 2.222656 -1.65625 1.828125 -1.5 1.359375 -1.5 C 1.234375 -1.5 1.109375 -1.515625 0.984375 -1.546875 C 0.859375 -1.578125 0.738281 -1.613281 0.625 -1.65625 C 0.289062 -1.769531 0.117188 -2.007812 0.109375 -2.375 C 0.0859375 -2.632812 0.101562 -2.882812 0.15625 -3.125 C 0.21875 -3.363281 0.289062 -3.601562 0.375 -3.84375 C 0.5 -4.1875 0.625 -4.53125 0.75 -4.875 C 0.882812 -5.226562 1.015625 -5.582031 1.140625 -5.9375 C 0.640625 -6.050781 0.226562 -6.226562 -0.09375 -6.46875 C -0.425781 -6.71875 -0.601562 -7.132812 -0.625 -7.71875 C -0.644531 -8.332031 -0.472656 -8.875 -0.109375 -9.34375 C 0.015625 -9.507812 0.191406 -9.640625 0.421875 -9.734375 C 0.648438 -9.828125 0.875 -9.875 1.09375 -9.875 C 1.320312 -9.875 1.535156 -9.820312 1.734375 -9.71875 C 2.046875 -9.519531 2.15625 -9.238281 2.0625 -8.875 C 1.976562 -8.53125 1.851562 -8.207031 1.6875 -7.90625 C 1.59375 -7.71875 1.476562 -7.535156 1.34375 -7.359375 C 1.207031 -7.179688 1.0625 -6.976562 0.90625 -6.75 C 1.019531 -6.707031 1.125 -6.664062 1.21875 -6.625 C 1.3125 -6.59375 1.40625 -6.570312 1.5 -6.5625 C 1.613281 -6.53125 1.734375 -6.503906 1.859375 -6.484375 C 1.992188 -6.472656 2.117188 -6.457031 2.234375 -6.4375 C 2.535156 -6.351562 2.632812 -6.164062 2.53125 -5.875 C 2.4375 -5.625 2.34375 -5.375 2.25 -5.125 C 2.164062 -4.882812 2.066406 -4.640625 1.953125 -4.390625 C 1.679688 -3.816406 1.546875 -3.226562 1.546875 -2.625 C 1.546875 -2.539062 1.539062 -2.457031 1.53125 -2.375 C 1.53125 -2.289062 1.519531 -2.203125 1.5 -2.109375 C 1.519531 -2.109375 1.53125 -2.109375 1.53125 -2.109375 C 1.539062 -2.109375 1.546875 -2.109375 1.546875 -2.109375 C 1.660156 -2.109375 1.742188 -2.128906 1.796875 -2.171875 C 1.859375 -2.222656 1.921875 -2.273438 1.984375 -2.328125 C 2.335938 -2.660156 2.695312 -3.046875 3.0625 -3.484375 C 3.425781 -3.921875 3.769531 -4.375 4.09375 -4.84375 C 4.425781 -5.320312 4.703125 -5.769531 4.921875 -6.1875 C 5.003906 -6.34375 5.101562 -6.445312 5.21875 -6.5 C 5.332031 -6.550781 5.46875 -6.578125 5.625 -6.578125 Z M 0.46875 -7.359375 C 0.832031 -7.703125 1.066406 -8.0625 1.171875 -8.4375 C 1.285156 -8.8125 1.265625 -9.140625 1.109375 -9.421875 C 0.867188 -9.253906 0.707031 -9.0625 0.625 -8.84375 C 0.539062 -8.625 0.5 -8.390625 0.5 -8.140625 C 0.5 -7.898438 0.488281 -7.640625 0.46875 -7.359375 Z M 0.46875 -7.359375 "/></g></g></g><g fill="#000000" fill-opacity="1"><g transform="translate(18.946992, 20.685486)"><g><path d="M 5.78125 -6.171875 C 5.9375 -6.367188 6.085938 -6.46875 6.234375 -6.46875 C 6.296875 -6.46875 6.367188 -6.453125 6.453125 -6.421875 C 6.535156 -6.398438 6.632812 -6.363281 6.75 -6.3125 C 6.375 -5.789062 5.957031 -5.273438 5.5 -4.765625 C 5.050781 -4.253906 4.550781 -3.828125 4 -3.484375 C 3.820312 -3.378906 3.648438 -3.3125 3.484375 -3.28125 C 3.316406 -3.25 3.140625 -3.234375 2.953125 -3.234375 C 2.671875 -3.265625 2.488281 -3.410156 2.40625 -3.671875 C 2.332031 -3.890625 2.300781 -4.113281 2.3125 -4.34375 C 2.320312 -4.570312 2.363281 -4.816406 2.4375 -5.078125 C 2.34375 -5.003906 2.257812 -4.945312 2.1875 -4.90625 C 2.113281 -4.863281 2.050781 -4.816406 2 -4.765625 C 1.738281 -4.515625 1.4375 -4.390625 1.09375 -4.390625 C 0.96875 -4.390625 0.84375 -4.398438 0.71875 -4.421875 C 0.59375 -4.453125 0.460938 -4.488281 0.328125 -4.53125 C 0.0546875 -4.644531 -0.0859375 -4.847656 -0.109375 -5.140625 C -0.191406 -5.835938 -0.0507812 -6.507812 0.3125 -7.15625 C 0.488281 -7.46875 0.6875 -7.757812 0.90625 -8.03125 C 1.125 -8.3125 1.359375 -8.578125 1.609375 -8.828125 C 1.753906 -8.972656 1.910156 -9.078125 2.078125 -9.140625 C 2.242188 -9.203125 2.429688 -9.234375 2.640625 -9.234375 C 2.890625 -9.234375 3.117188 -9.207031 3.328125 -9.15625 C 3.546875 -9.113281 3.753906 -9.019531 3.953125 -8.875 C 4.234375 -8.675781 4.375 -8.421875 4.375 -8.109375 C 4.375 -7.804688 4.234375 -7.546875 3.953125 -7.328125 C 3.816406 -7.378906 3.738281 -7.46875 3.71875 -7.59375 C 3.695312 -7.71875 3.675781 -7.832031 3.65625 -7.9375 C 3.570312 -8.269531 3.359375 -8.503906 3.015625 -8.640625 C 2.546875 -8.171875 2.171875 -7.65625 1.890625 -7.09375 C 1.617188 -6.539062 1.421875 -5.941406 1.296875 -5.296875 C 1.347656 -5.242188 1.390625 -5.210938 1.421875 -5.203125 C 1.660156 -5.359375 1.898438 -5.515625 2.140625 -5.671875 C 2.378906 -5.835938 2.609375 -6.007812 2.828125 -6.1875 C 3.046875 -6.363281 3.21875 -6.453125 3.34375 -6.453125 C 3.445312 -6.453125 3.601562 -6.367188 3.8125 -6.203125 C 4.007812 -6.035156 4.066406 -5.859375 3.984375 -5.671875 C 3.910156 -5.503906 3.835938 -5.335938 3.765625 -5.171875 C 3.691406 -5.003906 3.617188 -4.832031 3.546875 -4.65625 C 3.492188 -4.53125 3.441406 -4.398438 3.390625 -4.265625 C 3.347656 -4.140625 3.335938 -4.003906 3.359375 -3.859375 C 3.523438 -3.898438 3.722656 -3.992188 3.953125 -4.140625 C 4.179688 -4.285156 4.363281 -4.4375 4.5 -4.59375 C 4.71875 -4.851562 4.929688 -5.113281 5.140625 -5.375 C 5.359375 -5.644531 5.570312 -5.910156 5.78125 -6.171875 Z M 5.78125 -6.171875 "/></g></g></g><g fill="#000000" fill-opacity="1"><g transform="translate(24.740475, 20.685486)"><g><path d="M 10.171875 -6.59375 C 10.222656 -6.488281 10.226562 -6.390625 10.1875 -6.296875 C 10.144531 -6.210938 10.097656 -6.128906 10.046875 -6.046875 C 9.753906 -5.535156 9.460938 -5.023438 9.171875 -4.515625 C 8.890625 -4.003906 8.597656 -3.488281 8.296875 -2.96875 C 8.148438 -2.738281 8.007812 -2.503906 7.875 -2.265625 C 7.75 -2.035156 7.613281 -1.800781 7.46875 -1.5625 C 7.375 -1.382812 7.226562 -1.25 7.03125 -1.15625 C 6.84375 -1.070312 6.648438 -1.03125 6.453125 -1.03125 C 6.273438 -1.03125 6.101562 -1.066406 5.9375 -1.140625 C 5.769531 -1.222656 5.632812 -1.335938 5.53125 -1.484375 C 5.394531 -1.679688 5.296875 -1.878906 5.234375 -2.078125 C 5.171875 -2.273438 5.144531 -2.484375 5.15625 -2.703125 C 5.226562 -3.304688 5.289062 -3.90625 5.34375 -4.5 C 5.40625 -5.09375 5.515625 -5.675781 5.671875 -6.25 C 5.722656 -6.4375 5.757812 -6.628906 5.78125 -6.828125 C 5.800781 -7.035156 5.800781 -7.25 5.78125 -7.46875 C 5.632812 -7.375 5.515625 -7.265625 5.421875 -7.140625 C 5.328125 -7.015625 5.242188 -6.890625 5.171875 -6.765625 C 4.898438 -6.203125 4.613281 -5.640625 4.3125 -5.078125 C 4.019531 -4.523438 3.71875 -3.972656 3.40625 -3.421875 C 3.28125 -3.203125 3.03125 -3.09375 2.65625 -3.09375 C 2.613281 -3.09375 2.566406 -3.09375 2.515625 -3.09375 C 2.472656 -3.101562 2.425781 -3.117188 2.375 -3.140625 C 2.070312 -3.203125 1.941406 -3.425781 1.984375 -3.8125 C 2.003906 -4.050781 2.03125 -4.285156 2.0625 -4.515625 C 2.101562 -4.753906 2.140625 -4.984375 2.171875 -5.203125 C 2.191406 -5.265625 2.171875 -5.34375 2.109375 -5.4375 C 1.992188 -5.257812 1.878906 -5.082031 1.765625 -4.90625 C 1.660156 -4.726562 1.546875 -4.550781 1.421875 -4.375 C 1.285156 -4.175781 1.144531 -3.976562 1 -3.78125 C 0.851562 -3.59375 0.707031 -3.40625 0.5625 -3.21875 C 0.375 -3 0.117188 -2.890625 -0.203125 -2.890625 C -0.640625 -2.890625 -0.804688 -3.15625 -0.703125 -3.6875 C -0.609375 -4.113281 -0.5 -4.539062 -0.375 -4.96875 C -0.257812 -5.394531 -0.132812 -5.816406 0 -6.234375 C 0.0703125 -6.460938 0.171875 -6.6875 0.296875 -6.90625 C 0.429688 -7.125 0.640625 -7.234375 0.921875 -7.234375 C 0.960938 -7.234375 1.003906 -7.226562 1.046875 -7.21875 C 1.085938 -7.21875 1.128906 -7.210938 1.171875 -7.203125 C 1.421875 -7.085938 1.539062 -6.90625 1.53125 -6.65625 C 1.507812 -6.507812 1.488281 -6.351562 1.46875 -6.1875 C 1.445312 -6.019531 1.425781 -5.84375 1.40625 -5.65625 C 1.507812 -5.75 1.601562 -5.835938 1.6875 -5.921875 C 1.78125 -6.003906 1.878906 -6.078125 1.984375 -6.140625 C 2.085938 -6.210938 2.191406 -6.273438 2.296875 -6.328125 C 2.410156 -6.390625 2.523438 -6.429688 2.640625 -6.453125 C 2.691406 -6.460938 2.738281 -6.472656 2.78125 -6.484375 C 2.820312 -6.492188 2.859375 -6.5 2.890625 -6.5 C 3.117188 -6.5 3.300781 -6.332031 3.4375 -6 C 3.476562 -5.90625 3.523438 -5.800781 3.578125 -5.6875 C 3.628906 -5.582031 3.679688 -5.46875 3.734375 -5.34375 C 3.878906 -5.601562 4.019531 -5.859375 4.15625 -6.109375 C 4.300781 -6.367188 4.441406 -6.613281 4.578125 -6.84375 C 4.796875 -7.21875 5.023438 -7.539062 5.265625 -7.8125 C 5.492188 -8.09375 5.800781 -8.234375 6.1875 -8.234375 C 6.4375 -8.234375 6.664062 -8.171875 6.875 -8.046875 C 6.945312 -7.992188 7.019531 -7.90625 7.09375 -7.78125 C 7.351562 -7.28125 7.4375 -6.75 7.34375 -6.1875 C 7.25 -5.570312 7.144531 -4.953125 7.03125 -4.328125 C 6.925781 -3.710938 6.816406 -3.09375 6.703125 -2.46875 C 6.671875 -2.3125 6.632812 -2.148438 6.59375 -1.984375 C 6.550781 -1.828125 6.519531 -1.664062 6.5 -1.5 C 6.46875 -1.4375 6.472656 -1.40625 6.515625 -1.40625 C 6.554688 -1.40625 6.617188 -1.457031 6.703125 -1.5625 C 6.796875 -1.664062 6.882812 -1.769531 6.96875 -1.875 C 7.0625 -1.988281 7.117188 -2.066406 7.140625 -2.109375 C 7.347656 -2.460938 7.550781 -2.820312 7.75 -3.1875 C 7.957031 -3.550781 8.160156 -3.910156 8.359375 -4.265625 C 8.546875 -4.585938 8.722656 -4.910156 8.890625 -5.234375 C 9.054688 -5.554688 9.226562 -5.875 9.40625 -6.1875 C 9.476562 -6.3125 9.554688 -6.414062 9.640625 -6.5 C 9.734375 -6.582031 9.847656 -6.625 9.984375 -6.625 C 10.066406 -6.625 10.128906 -6.613281 10.171875 -6.59375 Z M 10.171875 -6.59375 "/></g></g></g><g fill="#000000" fill-opacity="1"><g transform="translate(34.141992, 20.685486)"><g><path d="M 5.4375 -6.5 C 5.59375 -6.59375 5.726562 -6.640625 5.84375 -6.640625 C 5.957031 -6.640625 6.054688 -6.601562 6.140625 -6.53125 C 6.054688 -6.34375 5.9375 -6.210938 5.78125 -6.140625 C 5.625 -6.078125 5.457031 -6.015625 5.28125 -5.953125 C 5.101562 -5.898438 4.925781 -5.847656 4.75 -5.796875 C 4.582031 -5.753906 4.398438 -5.695312 4.203125 -5.625 C 4.203125 -5.21875 4.175781 -4.832031 4.125 -4.46875 C 4.070312 -4.101562 3.941406 -3.773438 3.734375 -3.484375 C 3.535156 -3.191406 3.21875 -2.953125 2.78125 -2.765625 C 2.695312 -2.734375 2.648438 -2.71875 2.640625 -2.71875 C 2.546875 -2.707031 2.457031 -2.6875 2.375 -2.65625 C 2.289062 -2.632812 2.203125 -2.625 2.109375 -2.625 C 1.910156 -2.625 1.742188 -2.695312 1.609375 -2.84375 C 1.273438 -3.1875 1.195312 -3.585938 1.375 -4.046875 C 1.488281 -4.359375 1.660156 -4.617188 1.890625 -4.828125 C 2.117188 -5.035156 2.390625 -5.222656 2.703125 -5.390625 C 2.628906 -5.578125 2.597656 -5.769531 2.609375 -5.96875 C 2.628906 -6.164062 2.632812 -6.367188 2.625 -6.578125 C 2.625 -6.785156 2.546875 -6.976562 2.390625 -7.15625 C 2.296875 -7.101562 2.195312 -7.054688 2.09375 -7.015625 C 1.988281 -6.972656 1.894531 -6.925781 1.8125 -6.875 C 1.644531 -6.769531 1.519531 -6.648438 1.4375 -6.515625 C 1.351562 -6.378906 1.3125 -6.203125 1.3125 -5.984375 C 1.300781 -5.429688 1.265625 -4.878906 1.203125 -4.328125 C 1.140625 -3.773438 1.082031 -3.21875 1.03125 -2.65625 C 1 -2.269531 0.9375 -1.785156 0.84375 -1.203125 C 0.757812 -0.628906 0.632812 -0.03125 0.46875 0.59375 C 0.3125 1.21875 0.109375 1.8125 -0.140625 2.375 C -0.390625 2.9375 -0.6875 3.398438 -1.03125 3.765625 C -1.382812 4.128906 -1.804688 4.332031 -2.296875 4.375 C -2.328125 4.375 -2.363281 4.375 -2.40625 4.375 C -2.445312 4.375 -2.488281 4.375 -2.53125 4.375 C -2.550781 4.375 -2.5625 4.375 -2.5625 4.375 C -2.570312 4.375 -2.59375 4.375 -2.625 4.375 C -2.96875 4.375 -3.203125 4.289062 -3.328125 4.125 C -3.460938 3.96875 -3.507812 3.71875 -3.46875 3.375 C -3.445312 3.300781 -3.429688 3.222656 -3.421875 3.140625 C -3.410156 3.054688 -3.394531 2.972656 -3.375 2.890625 C -3.101562 1.878906 -2.804688 0.878906 -2.484375 -0.109375 C -2.171875 -1.097656 -1.789062 -2.054688 -1.34375 -2.984375 C -1.1875 -3.304688 -1.023438 -3.617188 -0.859375 -3.921875 C -0.703125 -4.234375 -0.539062 -4.539062 -0.375 -4.84375 C -0.175781 -5.207031 -0.0625 -5.570312 -0.03125 -5.9375 C -0.0078125 -6.3125 -0.015625 -6.691406 -0.046875 -7.078125 C -0.0546875 -7.222656 -0.0507812 -7.375 -0.03125 -7.53125 C -0.0078125 -7.695312 0.00390625 -7.851562 0.015625 -8 C 0.046875 -8.195312 0.148438 -8.316406 0.328125 -8.359375 C 0.359375 -8.359375 0.382812 -8.359375 0.40625 -8.359375 C 0.425781 -8.367188 0.441406 -8.375 0.453125 -8.375 C 0.609375 -8.375 0.722656 -8.304688 0.796875 -8.171875 C 0.859375 -8.097656 0.910156 -8.019531 0.953125 -7.9375 C 0.992188 -7.851562 1.035156 -7.769531 1.078125 -7.6875 C 1.097656 -7.59375 1.125 -7.492188 1.15625 -7.390625 C 1.195312 -7.285156 1.238281 -7.171875 1.28125 -7.046875 C 1.507812 -7.203125 1.734375 -7.351562 1.953125 -7.5 C 2.179688 -7.644531 2.425781 -7.71875 2.6875 -7.71875 C 3.125 -7.71875 3.472656 -7.546875 3.734375 -7.203125 C 4.003906 -6.859375 4.148438 -6.484375 4.171875 -6.078125 C 4.398438 -6.140625 4.617188 -6.191406 4.828125 -6.234375 C 5.046875 -6.273438 5.25 -6.363281 5.4375 -6.5 Z M -2.515625 3.8125 C -2.265625 3.769531 -2.03125 3.570312 -1.8125 3.21875 C -1.601562 2.875 -1.421875 2.441406 -1.265625 1.921875 C -1.109375 1.410156 -0.972656 0.882812 -0.859375 0.34375 C -0.742188 -0.195312 -0.65625 -0.691406 -0.59375 -1.140625 C -0.53125 -1.597656 -0.488281 -1.929688 -0.46875 -2.140625 C -0.457031 -2.359375 -0.441406 -2.578125 -0.421875 -2.796875 C -0.398438 -3.023438 -0.382812 -3.25 -0.375 -3.46875 C -0.394531 -3.476562 -0.414062 -3.484375 -0.4375 -3.484375 C -0.457031 -3.484375 -0.484375 -3.488281 -0.515625 -3.5 C -0.941406 -2.664062 -1.347656 -1.785156 -1.734375 -0.859375 C -2.128906 0.0664062 -2.414062 1 -2.59375 1.9375 C -2.632812 2.113281 -2.671875 2.296875 -2.703125 2.484375 C -2.734375 2.679688 -2.753906 2.878906 -2.765625 3.078125 C -2.765625 3.203125 -2.75 3.328125 -2.71875 3.453125 C -2.695312 3.585938 -2.628906 3.707031 -2.515625 3.8125 Z M 2.046875 -3.046875 C 2.265625 -3.328125 2.425781 -3.613281 2.53125 -3.90625 C 2.632812 -4.207031 2.664062 -4.53125 2.625 -4.875 C 2.175781 -4.675781 1.890625 -4.390625 1.765625 -4.015625 C 1.648438 -3.648438 1.742188 -3.328125 2.046875 -3.046875 Z M 2.046875 -3.046875 "/></g></g></g><g fill="#000000" fill-opacity="1"><g transform="translate(39.584976, 20.685486)"><g><path d="M 4.3125 -6.5 C 4.394531 -6.539062 4.476562 -6.578125 4.5625 -6.609375 C 4.644531 -6.640625 4.734375 -6.65625 4.828125 -6.65625 C 4.953125 -6.65625 5.078125 -6.613281 5.203125 -6.53125 C 5.203125 -6.414062 5.160156 -6.332031 5.078125 -6.28125 C 5.003906 -6.226562 4.925781 -6.195312 4.84375 -6.1875 C 4.632812 -6.144531 4.421875 -6.101562 4.203125 -6.0625 C 3.992188 -6.03125 3.78125 -6.007812 3.5625 -6 C 3.332031 -5.988281 3.191406 -5.960938 3.140625 -5.921875 C 3.097656 -5.890625 3.039062 -5.757812 2.96875 -5.53125 C 2.9375 -5.375 2.90625 -5.21875 2.875 -5.0625 C 2.84375 -4.90625 2.804688 -4.75 2.765625 -4.59375 C 2.585938 -3.894531 2.125 -3.523438 1.375 -3.484375 C 1.195312 -3.484375 0.988281 -3.503906 0.75 -3.546875 C 0.519531 -3.597656 0.304688 -3.679688 0.109375 -3.796875 C -0.078125 -3.921875 -0.179688 -4.09375 -0.203125 -4.3125 C -0.222656 -4.414062 -0.234375 -4.523438 -0.234375 -4.640625 C -0.242188 -4.753906 -0.242188 -4.863281 -0.234375 -4.96875 C -0.203125 -5.144531 -0.175781 -5.320312 -0.15625 -5.5 C -0.132812 -5.6875 -0.109375 -5.867188 -0.078125 -6.046875 C -0.0234375 -6.273438 0.0390625 -6.453125 0.125 -6.578125 C 0.21875 -6.710938 0.351562 -6.78125 0.53125 -6.78125 C 0.65625 -6.78125 0.796875 -6.753906 0.953125 -6.703125 C 0.742188 -6.753906 0.578125 -6.882812 0.453125 -7.09375 C 0.335938 -7.300781 0.265625 -7.523438 0.234375 -7.765625 C 0.210938 -8.003906 0.226562 -8.191406 0.28125 -8.328125 C 0.351562 -8.535156 0.488281 -8.707031 0.6875 -8.84375 C 0.882812 -8.976562 1.09375 -9.046875 1.3125 -9.046875 C 1.882812 -9.046875 2.34375 -8.878906 2.6875 -8.546875 C 3.03125 -8.210938 3.203125 -7.765625 3.203125 -7.203125 C 3.203125 -7.078125 3.203125 -6.945312 3.203125 -6.8125 C 3.203125 -6.6875 3.203125 -6.554688 3.203125 -6.421875 C 3.390625 -6.378906 3.5625 -6.359375 3.71875 -6.359375 C 3.914062 -6.359375 4.113281 -6.40625 4.3125 -6.5 Z M 1.5625 -4.015625 C 1.769531 -4.335938 1.976562 -4.660156 2.1875 -4.984375 C 2.40625 -5.304688 2.53125 -5.660156 2.5625 -6.046875 C 2.3125 -6.140625 2.066406 -6.234375 1.828125 -6.328125 C 1.585938 -6.421875 1.347656 -6.519531 1.109375 -6.625 C 1.066406 -6.644531 1.039062 -6.660156 1.03125 -6.671875 C 1.019531 -6.679688 1.015625 -6.6875 1.015625 -6.6875 C 1.015625 -6.6875 1.0625 -6.632812 1.15625 -6.53125 C 1.25 -6.4375 1.296875 -6.28125 1.296875 -6.0625 C 1.304688 -5.914062 1.304688 -5.757812 1.296875 -5.59375 C 1.296875 -5.4375 1.285156 -5.273438 1.265625 -5.109375 C 1.242188 -4.921875 1.253906 -4.6875 1.296875 -4.40625 C 1.335938 -4.125 1.40625 -3.984375 1.5 -3.984375 C 1.519531 -3.984375 1.539062 -3.992188 1.5625 -4.015625 Z M 2.625 -6.5625 C 2.6875 -7.050781 2.625 -7.492188 2.4375 -7.890625 C 2.257812 -8.285156 1.96875 -8.550781 1.5625 -8.6875 C 1.394531 -8.53125 1.3125 -8.363281 1.3125 -8.1875 C 1.3125 -8.007812 1.351562 -7.832031 1.4375 -7.65625 C 1.5625 -7.394531 1.695312 -7.144531 1.84375 -6.90625 C 2 -6.675781 2.257812 -6.5625 2.625 -6.5625 Z M 2.625 -6.5625 "/></g></g></g><g fill="#000000" fill-opacity="1"><g transform="translate(44.450678, 20.685486)"><g><path d="M 5.390625 -6.5625 C 5.453125 -6.601562 5.519531 -6.625 5.59375 -6.625 C 5.675781 -6.625 5.738281 -6.582031 5.78125 -6.5 C 5.832031 -6.375 5.816406 -6.253906 5.734375 -6.140625 C 5.484375 -5.753906 5.226562 -5.363281 4.96875 -4.96875 C 4.707031 -4.582031 4.460938 -4.191406 4.234375 -3.796875 C 3.984375 -3.398438 3.703125 -3.019531 3.390625 -2.65625 C 3.078125 -2.300781 2.742188 -1.957031 2.390625 -1.625 C 2.054688 -1.3125 1.671875 -1.15625 1.234375 -1.15625 C 0.671875 -1.15625 0.226562 -1.359375 -0.09375 -1.765625 C -0.414062 -2.179688 -0.578125 -2.648438 -0.578125 -3.171875 C -0.566406 -3.648438 -0.488281 -4.222656 -0.34375 -4.890625 C -0.207031 -5.566406 -0.0390625 -6.257812 0.15625 -6.96875 C 0.363281 -7.6875 0.582031 -8.363281 0.8125 -9 C 1.039062 -9.644531 1.25 -10.175781 1.4375 -10.59375 C 1.632812 -11.019531 1.835938 -11.441406 2.046875 -11.859375 C 2.265625 -12.285156 2.476562 -12.710938 2.6875 -13.140625 C 2.875 -13.535156 3.101562 -13.816406 3.375 -13.984375 C 3.644531 -14.148438 3.972656 -14.234375 4.359375 -14.234375 C 4.421875 -14.234375 4.488281 -14.234375 4.5625 -14.234375 C 4.644531 -14.234375 4.726562 -14.222656 4.8125 -14.203125 C 5.03125 -14.179688 5.179688 -14.117188 5.265625 -14.015625 C 5.347656 -13.921875 5.394531 -13.765625 5.40625 -13.546875 C 5.445312 -13.109375 5.429688 -12.675781 5.359375 -12.25 C 5.296875 -11.820312 5.148438 -11.40625 4.921875 -11 C 4.703125 -10.539062 4.453125 -10.097656 4.171875 -9.671875 C 3.890625 -9.253906 3.570312 -8.867188 3.21875 -8.515625 C 3.082031 -8.378906 2.945312 -8.234375 2.8125 -8.078125 C 2.6875 -7.921875 2.5625 -7.765625 2.4375 -7.609375 C 2.1875 -7.265625 1.972656 -6.835938 1.796875 -6.328125 C 1.617188 -5.816406 1.484375 -5.296875 1.390625 -4.765625 C 1.304688 -4.242188 1.253906 -3.773438 1.234375 -3.359375 C 1.222656 -3.097656 1.234375 -2.835938 1.265625 -2.578125 C 1.296875 -2.328125 1.328125 -2.046875 1.359375 -1.734375 C 1.609375 -1.835938 1.8125 -1.960938 1.96875 -2.109375 C 2.125 -2.265625 2.28125 -2.414062 2.4375 -2.5625 C 2.875 -2.988281 3.242188 -3.453125 3.546875 -3.953125 C 3.859375 -4.460938 4.175781 -4.972656 4.5 -5.484375 C 4.582031 -5.609375 4.660156 -5.734375 4.734375 -5.859375 C 4.804688 -5.992188 4.882812 -6.117188 4.96875 -6.234375 C 5.019531 -6.296875 5.082031 -6.351562 5.15625 -6.40625 C 5.238281 -6.46875 5.316406 -6.519531 5.390625 -6.5625 Z M 4.46875 -11.984375 C 4.570312 -12.285156 4.570312 -12.601562 4.46875 -12.9375 C 4.164062 -12.269531 3.835938 -11.617188 3.484375 -10.984375 C 3.140625 -10.347656 2.875 -9.671875 2.6875 -8.953125 C 3.125 -9.390625 3.472656 -9.863281 3.734375 -10.375 C 4.003906 -10.894531 4.25 -11.429688 4.46875 -11.984375 Z M 4.46875 -11.984375 "/></g></g></g><g fill="#000000" fill-opacity="1"><g transform="translate(49.419467, 20.685486)"><g><path d="M 4.46875 -6.390625 C 4.550781 -6.367188 4.582031 -6.320312 4.5625 -6.25 C 4.539062 -6.175781 4.519531 -6.113281 4.5 -6.0625 C 4.238281 -5.613281 3.957031 -5.175781 3.65625 -4.75 C 3.351562 -4.332031 3.039062 -3.925781 2.71875 -3.53125 C 2.539062 -3.3125 2.34375 -3.164062 2.125 -3.09375 C 1.914062 -3.019531 1.613281 -2.984375 1.21875 -2.984375 C 0.976562 -2.984375 0.769531 -3.007812 0.59375 -3.0625 C 0.414062 -3.113281 0.238281 -3.226562 0.0625 -3.40625 C -0.113281 -3.570312 -0.234375 -3.75 -0.296875 -3.9375 C -0.359375 -4.132812 -0.382812 -4.34375 -0.375 -4.5625 C -0.332031 -5.144531 -0.207031 -5.726562 0 -6.3125 C 0.0703125 -6.5 0.128906 -6.6875 0.171875 -6.875 C 0.222656 -7.070312 0.273438 -7.269531 0.328125 -7.46875 C 0.441406 -7.78125 0.648438 -7.9375 0.953125 -7.9375 C 1.003906 -7.9375 1.054688 -7.929688 1.109375 -7.921875 C 1.171875 -7.921875 1.226562 -7.914062 1.28125 -7.90625 C 1.707031 -7.820312 1.878906 -7.570312 1.796875 -7.15625 C 1.742188 -6.851562 1.679688 -6.546875 1.609375 -6.234375 C 1.535156 -5.929688 1.46875 -5.617188 1.40625 -5.296875 C 1.363281 -5.078125 1.3125 -4.851562 1.25 -4.625 C 1.195312 -4.40625 1.148438 -4.175781 1.109375 -3.9375 C 1.097656 -3.851562 1.097656 -3.765625 1.109375 -3.671875 C 1.128906 -3.578125 1.164062 -3.5 1.21875 -3.4375 C 1.300781 -3.34375 1.410156 -3.296875 1.546875 -3.296875 C 1.640625 -3.296875 1.726562 -3.316406 1.8125 -3.359375 C 1.894531 -3.410156 1.976562 -3.46875 2.0625 -3.53125 C 2.144531 -3.59375 2.210938 -3.660156 2.265625 -3.734375 C 2.460938 -3.992188 2.648438 -4.25 2.828125 -4.5 C 3.003906 -4.757812 3.179688 -5.019531 3.359375 -5.28125 C 3.472656 -5.425781 3.570312 -5.578125 3.65625 -5.734375 C 3.75 -5.898438 3.84375 -6.054688 3.9375 -6.203125 C 4.007812 -6.304688 4.066406 -6.363281 4.109375 -6.375 C 4.148438 -6.382812 4.191406 -6.394531 4.234375 -6.40625 C 4.273438 -6.425781 4.316406 -6.4375 4.359375 -6.4375 C 4.378906 -6.4375 4.414062 -6.421875 4.46875 -6.390625 Z M 1.109375 -9.09375 C 0.941406 -9.09375 0.832031 -9.148438 0.78125 -9.265625 C 0.726562 -9.390625 0.75 -9.519531 0.84375 -9.65625 C 0.96875 -9.882812 1.257812 -10 1.71875 -10 C 1.726562 -10 1.75 -10 1.78125 -10 C 1.8125 -10 1.847656 -10 1.890625 -10 C 2.128906 -9.976562 2.253906 -9.867188 2.265625 -9.671875 C 2.265625 -9.410156 2.175781 -9.253906 2 -9.203125 C 1.863281 -9.160156 1.71875 -9.128906 1.5625 -9.109375 C 1.414062 -9.097656 1.265625 -9.09375 1.109375 -9.09375 Z M 1.109375 -9.09375 "/></g></g></g><g fill="#000000" fill-opacity="1"><g transform="translate(53.336768, 20.685486)"><g><path d="M 6.0625 -6.421875 C 6.09375 -6.398438 6.109375 -6.359375 6.109375 -6.296875 C 6.109375 -6.234375 6.09375 -6.179688 6.0625 -6.140625 C 5.988281 -6.015625 5.910156 -5.882812 5.828125 -5.75 C 5.753906 -5.625 5.664062 -5.507812 5.5625 -5.40625 C 5.382812 -5.195312 5.203125 -4.992188 5.015625 -4.796875 C 4.835938 -4.597656 4.65625 -4.394531 4.46875 -4.1875 C 4.320312 -3.988281 4.148438 -3.847656 3.953125 -3.765625 C 3.753906 -3.691406 3.535156 -3.65625 3.296875 -3.65625 C 3.117188 -3.65625 2.953125 -3.675781 2.796875 -3.71875 C 2.648438 -3.769531 2.550781 -3.898438 2.5 -4.109375 C 2.476562 -4.210938 2.457031 -4.320312 2.4375 -4.4375 C 2.414062 -4.5625 2.398438 -4.675781 2.390625 -4.78125 C 2.390625 -4.863281 2.390625 -4.953125 2.390625 -5.046875 C 2.390625 -5.148438 2.390625 -5.265625 2.390625 -5.390625 C 2.335938 -5.328125 2.285156 -5.28125 2.234375 -5.25 C 2.191406 -5.226562 2.15625 -5.195312 2.125 -5.15625 C 1.914062 -4.882812 1.707031 -4.601562 1.5 -4.3125 C 1.300781 -4.019531 1.097656 -3.738281 0.890625 -3.46875 C 0.828125 -3.375 0.710938 -3.300781 0.546875 -3.25 C 0.390625 -3.195312 0.226562 -3.171875 0.0625 -3.171875 C -0.1875 -3.171875 -0.363281 -3.226562 -0.46875 -3.34375 C -0.582031 -3.46875 -0.617188 -3.597656 -0.578125 -3.734375 C -0.523438 -4.035156 -0.457031 -4.332031 -0.375 -4.625 C -0.300781 -4.925781 -0.234375 -5.226562 -0.171875 -5.53125 C -0.128906 -5.738281 -0.0859375 -5.941406 -0.046875 -6.140625 C -0.00390625 -6.335938 0.03125 -6.539062 0.0625 -6.75 C 0.144531 -7.175781 0.375 -7.390625 0.75 -7.390625 C 0.945312 -7.367188 1.109375 -7.300781 1.234375 -7.1875 C 1.359375 -7.082031 1.414062 -6.914062 1.40625 -6.6875 C 1.382812 -6.539062 1.359375 -6.347656 1.328125 -6.109375 C 1.296875 -5.867188 1.257812 -5.628906 1.21875 -5.390625 C 1.175781 -5.160156 1.128906 -4.972656 1.078125 -4.828125 C 1.097656 -4.828125 1.113281 -4.828125 1.125 -4.828125 C 1.144531 -4.828125 1.160156 -4.828125 1.171875 -4.828125 C 1.367188 -5.054688 1.554688 -5.285156 1.734375 -5.515625 C 1.921875 -5.742188 2.113281 -5.96875 2.3125 -6.1875 C 2.414062 -6.300781 2.523438 -6.394531 2.640625 -6.46875 C 2.765625 -6.550781 2.910156 -6.59375 3.078125 -6.59375 C 3.347656 -6.570312 3.523438 -6.453125 3.609375 -6.234375 C 3.773438 -5.859375 3.820312 -5.453125 3.75 -5.015625 C 3.707031 -4.859375 3.703125 -4.675781 3.734375 -4.46875 C 3.992188 -4.707031 4.25 -4.9375 4.5 -5.15625 C 4.75 -5.382812 4.984375 -5.632812 5.203125 -5.90625 C 5.285156 -6 5.375 -6.085938 5.46875 -6.171875 C 5.5625 -6.265625 5.65625 -6.351562 5.75 -6.4375 C 5.78125 -6.457031 5.816406 -6.46875 5.859375 -6.46875 C 5.890625 -6.46875 5.921875 -6.460938 5.953125 -6.453125 C 5.992188 -6.441406 6.03125 -6.429688 6.0625 -6.421875 Z M 6.0625 -6.421875 "/></g></g></g><g fill="#000000" fill-opacity="1"><g transform="translate(58.841605, 20.685486)"><g><path d="M 5.03125 -6.140625 C 5.125 -6.296875 5.226562 -6.394531 5.34375 -6.4375 C 5.46875 -6.476562 5.617188 -6.5 5.796875 -6.5 C 5.753906 -6.382812 5.71875 -6.285156 5.6875 -6.203125 C 5.664062 -6.117188 5.632812 -6.046875 5.59375 -5.984375 C 5.457031 -5.804688 5.3125 -5.625 5.15625 -5.4375 C 5 -5.25 4.847656 -5.070312 4.703125 -4.90625 C 4.546875 -4.726562 4.382812 -4.554688 4.21875 -4.390625 C 4.0625 -4.222656 3.90625 -4.050781 3.75 -3.875 C 3.46875 -3.53125 3.144531 -3.28125 2.78125 -3.125 C 2.425781 -2.976562 2.039062 -2.90625 1.625 -2.90625 C 1.101562 -2.90625 0.660156 -3.03125 0.296875 -3.28125 C -0.0664062 -3.53125 -0.273438 -3.941406 -0.328125 -4.515625 C -0.359375 -4.785156 -0.335938 -5.046875 -0.265625 -5.296875 C -0.160156 -5.796875 0 -6.289062 0.21875 -6.78125 C 0.445312 -7.28125 0.75 -7.691406 1.125 -8.015625 C 1.5 -8.347656 1.984375 -8.515625 2.578125 -8.515625 C 2.628906 -8.515625 2.6875 -8.515625 2.75 -8.515625 C 2.8125 -8.515625 2.867188 -8.507812 2.921875 -8.5 C 3.171875 -8.46875 3.332031 -8.394531 3.40625 -8.28125 C 3.488281 -8.164062 3.5 -7.988281 3.4375 -7.75 C 3.363281 -7.40625 3.242188 -7.078125 3.078125 -6.765625 C 2.910156 -6.460938 2.664062 -6.203125 2.34375 -5.984375 C 2.289062 -5.929688 2.238281 -5.875 2.1875 -5.8125 C 2.144531 -5.757812 2.085938 -5.710938 2.015625 -5.671875 C 1.671875 -5.460938 1.484375 -5.195312 1.453125 -4.875 C 1.421875 -4.5625 1.414062 -4.242188 1.4375 -3.921875 C 1.457031 -3.742188 1.5 -3.628906 1.5625 -3.578125 C 1.632812 -3.523438 1.753906 -3.5 1.921875 -3.5 C 2.109375 -3.53125 2.296875 -3.570312 2.484375 -3.625 C 2.671875 -3.6875 2.832031 -3.785156 2.96875 -3.921875 C 3.226562 -4.148438 3.484375 -4.390625 3.734375 -4.640625 C 3.992188 -4.890625 4.238281 -5.140625 4.46875 -5.390625 C 4.582031 -5.492188 4.679688 -5.609375 4.765625 -5.734375 C 4.859375 -5.867188 4.945312 -6.003906 5.03125 -6.140625 Z M 3.03125 -8.015625 C 2.894531 -8.054688 2.789062 -8.078125 2.71875 -8.078125 C 2.625 -8.078125 2.539062 -8 2.46875 -7.84375 C 2.363281 -7.582031 2.257812 -7.320312 2.15625 -7.0625 C 2.050781 -6.8125 1.941406 -6.554688 1.828125 -6.296875 C 1.816406 -6.265625 1.8125 -6.226562 1.8125 -6.1875 C 1.8125 -6.144531 1.804688 -6.101562 1.796875 -6.0625 C 2.546875 -6.5 2.957031 -7.148438 3.03125 -8.015625 Z M 3.03125 -8.015625 "/></g></g></g></svg>